<svg xmlns="http://www.w3.org/2000/svg" viewBox="0 0 64 64">
  <rect width="64" height="64" rx="14" fill="#fff"/>
  <!-- A letter stylized like the logo -->
  <path d="M32 8 C22 8 14 16 14 26 L14 56 Q14 58 16 58 L20 58 Q22 58 22 56 L22 40 L42 40 L42 56 Q42 58 44 58 L48 58 Q50 58 50 56 L50 26 C50 16 42 8 32 8 Z M22 34 L22 26 C22 20.5 26.5 16 32 16 C37.5 16 42 20.5 42 26 L42 34 Z" fill="#3a3d45"/>
  <!-- Dumbbell bar -->
  <rect x="8" y="28" width="48" height="6" rx="2" fill="#3a3d45"/>
  <!-- Dumbbell weights left -->
  <rect x="4" y="24" width="7" height="14" rx="2" fill="#3a3d45"/>
  <!-- Dumbbell weights right -->
  <rect x="53" y="24" width="7" height="14" rx="2" fill="#3a3d45"/>
</svg>
